<svg id="Layer_1" data-name="Layer 1" xmlns="http://www.w3.org/2000/svg" viewBox="0 0 230 230"><defs><style>.cls-1{fill:#ff7e4b;}.cls-2{fill:#001f3f;}.cls-3{fill:#fff;}</style></defs><rect class="cls-1" width="230" height="230" rx="16.48"/><rect class="cls-2" x="64.15" y="41.19" width="40.69" height="146.62"/><path class="cls-2" d="M150.48,57q-12-13.6-34-15.85V146.3q21.88-2,33.95-15.75T162.45,94Q162.45,70.64,150.48,57Z"/><path class="cls-3" d="M83.61,182.76h-1v-2.62h1Zm0-6.38h-1v-5.24h1Zm0-9h-1v-5.24h1Zm0-9h-1v-5.24h1Zm0-9h-1v-5.24h1Zm0-9h-1v-5.24h1Zm0-9h-1v-5.24h1Zm0-9h-1v-5.24h1Zm0-9h-1v-5.24h1Zm0-9h-1V99.14h1Zm0-9h-1V90.14h1Zm0-9h-1V81.14h1Zm0-9h-1V72.14h1Zm0-9h-1V63.14h1Zm0-9h-1V54.14h1Zm0-9h-1v-4h1Z"/><path class="cls-2" d="M116.43,176.23a17.17,17.17,0,0,1,2.18-.46,18,18,0,0,1,2.8-.21,6.77,6.77,0,0,1,2.47.39,3.7,3.7,0,0,1,1.56,1.1,4.13,4.13,0,0,1,.82,1.68,8.7,8.7,0,0,1,.25,2.18v6.59H123.2v-6.19a4.43,4.43,0,0,0-.42-2.26,1.71,1.71,0,0,0-1.57-.67l-.76,0-.71.08v9h-3.31Z"/><path class="cls-2" d="M139.87,181.64a7.74,7.74,0,0,1-.4,2.52,5.59,5.59,0,0,1-1.16,2,5.17,5.17,0,0,1-1.81,1.26,6.13,6.13,0,0,1-2.36.44,6.06,6.06,0,0,1-2.34-.44,5.27,5.27,0,0,1-1.81-1.26,5.76,5.76,0,0,1-1.17-2,7.49,7.49,0,0,1,0-5A5.81,5.81,0,0,1,130,177.2a5.6,5.6,0,0,1,1.82-1.24,6.28,6.28,0,0,1,4.62,0,5.46,5.46,0,0,1,1.81,1.24,5.77,5.77,0,0,1,1.17,1.93A7.22,7.22,0,0,1,139.87,181.64Zm-3.38,0a4.15,4.15,0,0,0-.61-2.41,2,2,0,0,0-1.74-.87,2,2,0,0,0-1.75.87,4.08,4.08,0,0,0-.62,2.41,4.17,4.17,0,0,0,.62,2.43,2,2,0,0,0,1.75.9,2,2,0,0,0,1.74-.9A4.25,4.25,0,0,0,136.49,181.64Z"/><path class="cls-2" d="M152.78,181.64a7.48,7.48,0,0,1-.4,2.52,5.44,5.44,0,0,1-1.16,2,5.23,5.23,0,0,1-1.8,1.26,6.52,6.52,0,0,1-4.71,0,5.36,5.36,0,0,1-1.81-1.26,5.76,5.76,0,0,1-1.17-2,7.24,7.24,0,0,1-.42-2.52,7,7,0,0,1,.43-2.51,5.84,5.84,0,0,1,1.2-1.93,5.4,5.4,0,0,1,1.82-1.24,6.26,6.26,0,0,1,4.61,0,5.26,5.26,0,0,1,1.81,1.24,5.79,5.79,0,0,1,1.18,1.93A7.22,7.22,0,0,1,152.78,181.64Zm-3.37,0a4.23,4.23,0,0,0-.61-2.41,2.2,2.2,0,0,0-3.5,0,4.15,4.15,0,0,0-.62,2.41,4.24,4.24,0,0,0,.62,2.43,2.15,2.15,0,0,0,3.5,0A4.32,4.32,0,0,0,149.41,181.64Z"/><path class="cls-2" d="M158.08,180l1-1.1,1-1.14.92-1.07.74-.88h3.93c-.78.9-1.55,1.76-2.29,2.58s-1.57,1.66-2.46,2.53a13.76,13.76,0,0,1,1.38,1.44c.47.55.93,1.13,1.38,1.72s.85,1.18,1.22,1.78.68,1.13.93,1.62h-3.8c-.24-.39-.51-.81-.81-1.28s-.63-.93-1-1.4-.69-.92-1.07-1.35a9.44,9.44,0,0,0-1.12-1.09v5.12h-3.3V170.81l3.3-.53Z"/></svg>