<?xml version="1.0" encoding="utf-8"?>
<!-- Generator: Adobe Illustrator 24.2.0, SVG Export Plug-In . SVG Version: 6.00 Build 0)  -->
<svg version="1.1" id="Layer_1" xmlns="http://www.w3.org/2000/svg" xmlns:xlink="http://www.w3.org/1999/xlink" x="0px" y="0px"
	 viewBox="0 0 1402.3 277.1" style="enable-background:new 0 0 1402.3 277.1;" xml:space="preserve">
<style type="text/css">
	.st0{fill:#FFFFFF;}
	.st1{fill:#FF7E4B;}
</style>
<g>
	<path class="st0" d="M154.8,122.3c9,9,9,23.7,0,32.7L39.4,270.3c-9,9-23.7,9-32.7,0c-9-9-9-23.7,0-32.7l99.1-99.1l-99-99.1
		c-9-9-9-23.7,0-32.7s23.7-9,32.7,0L154.8,122.3L154.8,122.3z"/>
	<path class="st1" d="M403,122.3c9,9,9,23.7,0,32.7L287.6,270.3c-9,9-23.7,9-32.7,0c-9-9-9-23.7,0-32.7l99.1-99.1l-99-99.1
		c-9-9-9-23.7,0-32.7s23.7-9,32.7,0L403,122.3L403,122.3z"/>
	<path class="st0" d="M651.1,122.3c9,9,9,23.7,0,32.7L535.7,270.3c-9,9-23.7,9-32.7,0c-9-9-9-23.7,0-32.7l99.1-99.1l-99-99.1
		c-9-9-9-23.7,0-32.7c9-9,23.7-9,32.7,0L651.1,122.3L651.1,122.3z"/>
	<path class="st1" d="M899.3,122.3c9,9,9,23.7,0,32.7L783.9,270.3c-9,9-23.7,9-32.7,0c-9-9-9-23.7,0-32.7l99.1-99.1l-99-99.1
		c-9-9-9-23.7,0-32.7c9-9,23.7-9,32.7,0L899.3,122.3L899.3,122.3z"/>
	<path class="st0" d="M1147.4,122.3c9,9,9,23.7,0,32.7L1032,270.3c-9,9-23.7,9-32.7,0c-9-9-9-23.7,0-32.7l99.1-99.1l-99-99.1
		c-9-9-9-23.7,0-32.7c9-9,23.7-9,32.7,0L1147.4,122.3L1147.4,122.3z"/>
	<path class="st1" d="M1395.6,122.3c9,9,9,23.7,0,32.7l-115.4,115.4c-9,9-23.7,9-32.7,0c-9-9-9-23.7,0-32.7l99.1-99.1l-99-99.1
		c-9-9-9-23.7,0-32.7c9-9,23.7-9,32.7,0L1395.6,122.3L1395.6,122.3z"/>
</g>
</svg>
