<?xml version="1.0" encoding="utf-8"?>
<!-- Generator: Adobe Illustrator 24.2.0, SVG Export Plug-In . SVG Version: 6.00 Build 0)  -->
<svg version="1.1" id="Layer_1" xmlns="http://www.w3.org/2000/svg" xmlns:xlink="http://www.w3.org/1999/xlink" x="0px" y="0px"
	 viewBox="0 0 747.3 512" style="enable-background:new 0 0 747.3 512;" xml:space="preserve">
<style type="text/css">
	.st0{fill:#FFFFFF;}
</style>
<path class="st0" d="M696.2,103H512V64c0-35.3-28.7-64-64-64H64C28.7,0,0,28.7,0,64v288c0,35.3,28.7,64,64,64h48h48v48v4v0.3v6.4
	V496c0,6.1,3.3,11.6,8.8,14.3s12,2.1,16.8-1.5l17.1-12.8l5.1-3.8l0.2-0.2l101.3-76h40.2c9.4,11.8,23.8,19.3,40,19.3h110.8l98.8,74.1
	c3.9,2.9,9.1,3.4,13.4,1.2c4.3-2.2,7-6.6,7-11.4v-63.9h76.7c28.2,0,51.1-22.9,51.1-51.1V154.1C747.3,125.9,724.4,103,696.2,103z
	 M338.3,154.1V368h-29c-10.4,0-20.5,3.4-28.8,9.6L208,432v-16c0-26.5-21.5-48-48-48H64c-8.8,0-16-7.2-16-16V64c0-8.8,7.2-16,16-16
	h384c8.8,0,16,7.2,16,16v39h-74.5C361.3,103,338.3,125.9,338.3,154.1z M441.3,227c0-14.1,11.4-25.5,25.5-25.5
	c14.1,0,25.5,11.4,25.5,25.5c0,14.1-11.4,25.5-25.5,25.5C452.8,252.5,441.3,241.1,441.3,227z M542.8,351.4c-37,0-67-24.8-67-55.3
	c0-5.2,4.3-9.5,9.5-9.5s9.5,4.3,9.5,9.5c0,20,21.5,36.3,48,36.3c26.5,0,48-16.3,48-36.3c0-5.2,4.3-9.5,9.5-9.5s9.5,4.3,9.5,9.5
	C609.9,326.6,579.8,351.4,542.8,351.4z M618.8,252.5c-14.1,0-25.5-11.4-25.5-25.5c0-14.1,11.4-25.5,25.5-25.5
	c14.1,0,25.5,11.4,25.5,25.5C644.3,241.1,632.9,252.5,618.8,252.5z"/>
</svg>
