<?xml version="1.0" encoding="utf-8"?>
<!-- Generator: Adobe Illustrator 24.2.0, SVG Export Plug-In . SVG Version: 6.00 Build 0)  -->
<svg version="1.1" id="Layer_1" xmlns="http://www.w3.org/2000/svg" xmlns:xlink="http://www.w3.org/1999/xlink" x="0px" y="0px"
	 viewBox="0 0 593 512" style="enable-background:new 0 0 593 512;" xml:space="preserve">
<style type="text/css">
	.st0{fill:#FF7E4B;}
	.st1{fill:#001F3F;}
</style>
<g>
	<path class="st0" d="M365.3,397.4c-4.4,0-8.9-0.9-13.2-2.6c-12.9-5.3-21.3-17.8-21.3-31.9v-19h-68.5v19c0,14.1-8.4,26.6-21.3,31.9
		c-13,5.3-27.7,2.4-37.6-7.5l-61.1-61.1c-6.6-6.6-10.1-15.3-10.1-24.5c0-9.2,3.6-17.8,10.2-24.3l61.1-61.1
		c9.9-9.9,24.6-12.8,37.6-7.5c12.9,5.3,21.3,17.8,21.3,31.9v19h68.5v-19c0-14.1,8.4-26.6,21.3-31.9c13-5.3,27.7-2.4,37.6,7.5
		l61.1,61.1c6.5,6.6,10.1,15.3,10.1,24.5c0,9.2-3.6,17.8-10.2,24.3l-61.1,61.1C383,393.9,374.3,397.4,365.3,397.4z M239.1,320.7
		h114.8v42.1c0,4.6,2.7,8.8,7,10.5c4.3,1.8,9.2,0.8,12.4-2.4l61.1-61.1c2.2-2.1,3.3-4.9,3.3-7.9c0-3-1.2-5.9-3.3-8.1l-61.1-61.1
		c-3.3-3.3-8.1-4.2-12.4-2.4c-4.2,1.7-7,5.9-7,10.5v42.1H239.1v-42.1c0-4.6-2.7-8.8-7-10.5c-4.3-1.8-9.2-0.8-12.4,2.4l-61.1,61.1
		c-2.2,2.1-3.3,4.9-3.3,7.9c0,3,1.2,5.9,3.3,8.1l61.1,61.1c3.3,3.3,8.1,4.2,12.4,2.4c4.2-1.7,7-5.9,7-10.5V320.7z"/>
	<path class="st1" d="M495.1,512h-30.6c-31.7,0-57.4-25.7-57.4-57.4v-74.3l48.8-48.8c16.3-16.3,16.3-42.9,0-59.3l-61.1-61.1
		c-1.5-1.5-3.4-3.1-5.8-4.9l-9.2-6.7l6.5-9.3c16.4-23.5,43.4-37.5,72-37.5h42.8c22.1,0,43.3,8.3,59.6,23.2
		c16.3,15,26.3,35.4,28.1,57.5l3.9,47.1c2.5,30-13.8,58.1-40.3,71.2v102.8C552.5,486.3,526.8,512,495.1,512z M430.3,389.9v64.7
		c0,18.9,15.4,34.3,34.3,34.3h30.6c18.9,0,34.3-15.4,34.3-34.3V336l7.7-2.7c21.1-7.6,34.5-28.4,32.7-50.8l-3.9-47.1
		c-2.7-33.4-31.1-59.5-64.6-59.5h-42.8c-17.6,0-34.3,7.2-46.4,19.6l60.3,60.3c25.4,25.4,25.4,66.6,0,92L430.3,389.9z M128.5,512
		H97.9c-31.6,0-57.4-25.7-57.4-57.4V351.8C14,338.7-2.3,310.5,0.3,280.5l3.9-47C6,211.4,15.9,191,32.2,176
		c16.3-15,37.4-23.2,59.6-23.2h42.8c28.6,0,55.6,14,72,37.5l6.6,9.5l-9.4,6.6c-2,1.4-3.9,3-5.6,4.7L137,272.2
		c-7.9,7.9-12.3,18.5-12.3,29.6s4.4,21.7,12.3,29.6l48.8,48.8v74.3C185.9,486.3,160.1,512,128.5,512z M91.8,175.9
		c-33.5,0-61.8,26.1-64.6,59.5l0,0l-3.9,47.1c-1.9,22.3,11.6,43.2,32.7,50.8l7.7,2.7v118.6c0,18.9,15.4,34.3,34.3,34.3h30.6
		c18.9,0,34.3-15.4,34.3-34.3v-64.7l-42.1-42.1c-12.3-12.3-19.1-28.6-19.1-46s6.8-33.7,19.1-46l60.3-60.3
		c-12.1-12.4-28.8-19.6-46.4-19.6H91.8z M479.8,145.4c-40.1,0-72.7-32.6-72.7-72.7S439.8,0,479.8,0s72.7,32.6,72.7,72.7
		S519.9,145.4,479.8,145.4z M479.8,23.1c-27.3,0-49.5,22.2-49.5,49.5s22.2,49.5,49.5,49.5c27.3,0,49.5-22.2,49.5-49.5
		S507.1,23.1,479.8,23.1z M113.2,145.4c-40.1,0-72.7-32.6-72.7-72.7S73.1,0,113.2,0s72.7,32.6,72.7,72.7S153.3,145.4,113.2,145.4z
		 M113.2,23.1c-27.3,0-49.5,22.2-49.5,49.5s22.2,49.5,49.5,49.5s49.5-22.2,49.5-49.5S140.5,23.1,113.2,23.1z"/>
</g>
</svg>
