<?xml version="1.0" encoding="utf-8"?>
<!-- Generator: Adobe Illustrator 24.2.0, SVG Export Plug-In . SVG Version: 6.00 Build 0)  -->
<svg version="1.1" id="Layer_1" xmlns="http://www.w3.org/2000/svg" xmlns:xlink="http://www.w3.org/1999/xlink" x="0px" y="0px"
	 viewBox="0 0 335.5 358.9" style="enable-background:new 0 0 335.5 358.9;" xml:space="preserve">
<style type="text/css">
	.st0{fill:#001F3F;}
	.st1{fill:none;}
	.st2{fill:#FF7E4B;}
</style>
<path class="st0" d="M150.6,74.5c-18.1,0-32.7,14.6-32.7,32.7c0,6-4.9,10.9-10.9,10.9s-10.9-4.9-10.9-10.9
	c0-30.1,24.4-54.5,54.5-54.5c6,0,10.9,4.9,10.9,10.9C161.5,69.5,156.6,74.5,150.6,74.5z"/>
<g>
	<path class="st0" d="M174.1,358.9c-33.5,0-60.7-27.2-60.7-60.7v-18.1h121.3v18.1C234.8,331.7,207.5,358.9,174.1,358.9z
		 M128.4,295.1v3.1c0,25.2,20.5,45.7,45.7,45.7s45.7-20.5,45.7-45.7v-3.1H128.4z"/>
</g>
<path class="st1" d="M265.1,146.2c-4.1,0-8.1-0.3-12.1-1c-5.3-0.9-9.6-4.9-10.8-10.3l-2.4-11c-2.1-1-4.1-2.2-6-3.5l-10.7,3.4
	c-5.3,1.7-10.9,0.1-14.3-4.1c-2.3-2.8-4.5-5.8-6.3-8.9l-0.1-0.1l-1.3-2.2c-1.8-3.2-3.3-6.5-4.5-9.8c-1.9-5.1-0.4-10.8,3.7-14.5
	l8.3-7.5c-0.1-1.2-0.1-2.4-0.1-3.5c0-1.2,0-2.3,0.1-3.5l-8.3-7.6c-4.1-3.7-5.5-9.3-3.6-14.4c1.2-3.3,2.8-6.6,4.5-9.8l1.3-2.3
	c1.9-3.1,4-6.1,6.3-8.9c0.5-0.6,1.1-1.2,1.7-1.7c-11.4-4-23.7-6.2-36.4-6.2c-60.4,0-109.5,49.1-109.5,109.5
	c0,22.5,6.8,44.1,19.5,62.4c3.3,4.7,6.8,9.5,10.1,14.1c12.3,16.8,24.9,34.1,32.1,54.2h95.5c7.1-19.9,19.6-37,31.7-53.6l0.4-0.5
	c3.4-4.6,6.9-9.4,10.1-14.1c9.9-14.3,16.2-30.5,18.5-47.5c-1.6,1.1-3.4,1.8-5.3,2.1C273.3,145.9,269.2,146.2,265.1,146.2z"/>
<path class="st1" d="M252.2,73.2c0,7.2,5.8,13,13,13c3.3,0,6.3-1.2,8.6-3.3c-3.6-7.8-8-15.1-13.2-21.9
	C255.6,62.9,252.2,67.6,252.2,73.2z"/>
<path class="st1" d="M266.8,45.2c14.7,0.9,26.4,13.1,26.4,27.9c0,4.1-0.9,8-2.5,11.5c2.4,6.4,4.3,13.1,5.6,20l14.4,4.6
	c1.6-2,3-4,4.2-6.1l1.1-2c1.2-2.2,2.2-4.4,3.1-6.6l-13.2-12l0.5-3.9c0.2-1.9,0.4-3.7,0.4-5.5s-0.1-3.7-0.4-5.5l-0.5-3.9l13.2-12
	l-0.2-0.5c-0.8-2-1.8-4.1-2.9-6l-1.1-2c-1.3-2.1-2.7-4.1-4.2-6.1l-17,5.4l-3.1-2.4c-2.9-2.3-6.2-4.1-9.6-5.5l-3.6-1.5l-3.8-17.4
	c-5.6-0.8-11.5-0.8-16.9,0l-3.6,16.4C258,36.1,262.6,40.5,266.8,45.2z"/>
<path class="st1" d="M265.2,101.2c-15.4,0-28-12.6-28-28c0-9.9,5.2-18.7,13-23.6c-3.4-3.3-7-6.3-10.8-9.2l-2.8,2.2l-17-5.4
	c-1.6,2-3,4-4.2,6.1l-1.1,2c-1.2,2.1-2.2,4.3-3.1,6.6l13.2,12l-0.5,3.9c-0.2,1.9-0.4,3.7-0.4,5.5s0.1,3.7,0.4,5.6l0.5,3.9l-13.2,12
	c0.9,2.2,1.9,4.4,3.1,6.6l1.1,2c1.3,2.1,2.7,4.1,4.2,6.1l17-5.4l3.1,2.4c2.9,2.3,6.2,4.1,9.6,5.5l3.6,1.5l3.8,17.4
	c5.6,0.8,11.4,0.8,16.9,0l3.8-17.4l3.6-1.5c0.4-0.2,0.8-0.4,1.2-0.5c-0.7-4.7-1.8-9.3-3.1-13.8C275,99.8,270.3,101.2,265.2,101.2z"
	/>
<path class="st0" d="M290.4,123.9l-2.4,11c-0.8,3.5-2.8,6.3-5.5,8.2c-2.3,17-8.6,33.2-18.5,47.5c-3.3,4.7-6.8,9.5-10.1,14.1
	l-0.4,0.5c-12.1,16.6-24.5,33.7-31.7,53.6h-95.4c-7.2-20.1-19.8-37.4-32.1-54.2c-3.4-4.6-6.9-9.4-10.1-14.1
	c-12.8-18.3-19.5-39.9-19.5-62.4c0-60.4,49.1-109.5,109.5-109.5c12.8,0,25,2.2,36.4,6.2c3.4-2.9,8.1-3.8,12.6-2.4l10.7,3.4
	c1.9-1.3,3.9-2.4,5.9-3.4c-19.1-11.9-41.6-18.8-65.7-18.8c-68.6,0-124.5,55.8-124.5,124.5c0,25.6,7.7,50.1,22.2,70.9
	c3.4,4.9,6.9,9.7,10.3,14.4c12.6,17.2,25.6,35,31.6,55l1.6,5.4h117.5l1.6-5.3c6-19.8,18.2-36.7,31.2-54.5l0.3-0.5
	c3.4-4.7,7-9.5,10.3-14.4c14.5-20.9,22.2-45.4,22.2-70.9c0-2.4-0.1-4.8-0.2-7.2l-1.9-0.6C294.5,121.7,292.5,122.9,290.4,123.9z"/>
<path class="st2" d="M266.8,45.2c-0.5,0-1.1-0.1-1.7-0.1c-5.5,0-10.6,1.6-15,4.4c-7.8,5-13,13.7-13,23.6c0,15.4,12.6,28,28,28
	c5.1,0,9.9-1.4,14-3.8c5.1-2.9,9.1-7.4,11.5-12.8c1.6-3.5,2.5-7.4,2.5-11.5C293.2,58.3,281.5,46.1,266.8,45.2z M265.2,86.2
	c-7.2,0-13-5.8-13-13c0-5.5,3.5-10.2,8.3-12.1c1.4-0.6,3-0.9,4.7-0.9c7.2,0,13,5.8,13,13c0,3.9-1.7,7.3-4.4,9.7
	C271.5,84.9,268.5,86.2,265.2,86.2z"/>
<path class="st2" d="M330.1,84.2l-8.3-7.6c0.1-1.2,0.1-2.3,0.1-3.5s0-2.3-0.1-3.5l8.3-7.5c2.7-2.4,4.3-5.7,4.5-9.2l0.9-0.9l-1.6-4.5
	c-1.2-3.3-2.8-6.6-4.5-9.8l-1.3-2.2l-0.1-0.1c-1.9-3.1-4-6.1-6.3-8.9c-3.5-4.2-9.1-5.8-14.3-4.1l-10.7,3.4c-1.9-1.3-4-2.5-6.1-3.5
	l-2.4-11C287,5.9,282.8,1.8,277.4,1c-8-1.3-16.6-1.3-24.2,0c-5.4,0.9-9.6,4.9-10.8,10.4l-2.4,11c0,0-0.1,0-0.1,0.1
	c-2,1-4,2.2-5.9,3.4l-10.7-3.4c-4.5-1.4-9.2-0.5-12.6,2.4c-0.6,0.5-1.2,1.1-1.7,1.7c-2.3,2.8-4.5,5.8-6.3,8.9l-1.3,2.3
	c-1.8,3.2-3.3,6.5-4.5,9.8c-1.9,5.1-0.4,10.8,3.6,14.4l8.3,7.6c-0.1,1.2-0.1,2.3-0.1,3.5s0,2.3,0.1,3.5l-8.3,7.5
	c-4.1,3.7-5.5,9.4-3.7,14.5c1.2,3.3,2.8,6.6,4.5,9.8l1.3,2.2l0.1,0.1c1.9,3.1,4,6.1,6.3,8.9c3.5,4.2,9.1,5.8,14.3,4.1l10.7-3.4
	c1.9,1.3,4,2.5,6,3.5l2.4,11c1.2,5.4,5.4,9.5,10.8,10.3c4,0.7,8.1,1,12.1,1s8.1-0.3,12.1-1c1.9-0.3,3.7-1.1,5.3-2.1
	c2.7-1.9,4.7-4.8,5.5-8.2l2.4-11c2.1-1,4.1-2.2,6.1-3.5l1.9,0.6l8.8,2.8c5.3,1.7,10.9,0.1,14.3-4.1c2.3-2.8,4.5-5.8,6.3-8.9l1.3-2.2
	l0.1-0.1c1.8-3.2,3.3-6.5,4.5-9.8C335.6,93.5,334.1,87.9,330.1,84.2z M306.5,67.6c0.2,1.9,0.4,3.7,0.4,5.5s-0.1,3.7-0.4,5.5
	l-0.5,3.9l13.2,12c-0.9,2.2-1.9,4.4-3.1,6.6l-1.1,2c-1.3,2.1-2.7,4.1-4.2,6.1l-14.4-4.6l-2.6-0.8l-3.1,2.4c-2.6,2-5.4,3.7-8.4,5
	c-0.4,0.2-0.8,0.4-1.2,0.5l-3.6,1.5l-3.8,17.4c-5.6,0.8-11.3,0.8-16.9,0l-3.8-17.4l-3.6-1.5c-3.4-1.4-6.6-3.3-9.6-5.5l-3.1-2.4
	l-17,5.4c-1.5-2-3-4-4.2-6.1l-1.1-2c-1.2-2.2-2.2-4.4-3.1-6.6l13.2-12l-0.5-3.9c-0.2-1.9-0.4-3.8-0.4-5.6s0.1-3.7,0.4-5.5l0.5-3.9
	l-13.2-12c0.9-2.2,1.9-4.4,3.1-6.6l1.1-2c1.3-2.1,2.7-4.1,4.2-6.1l17,5.4l2.8-2.2l0.3-0.2c2.9-2.3,6.2-4.1,9.6-5.5l3.6-1.5l0.2-1.1
	l3.6-16.4c5.4-0.8,11.3-0.8,16.9,0l3.8,17.4l3.6,1.5c3.4,1.4,6.6,3.3,9.6,5.5l3.1,2.4l17-5.4c1.5,2,3,4,4.2,6.1l1.1,2
	c1.1,2,2.1,4,2.9,6l0.2,0.5l-13.2,12L306.5,67.6z"/>
<g>
	<path class="st0" d="M54.3,67.6c-1.1,0-2.1-0.3-3-0.9L16.6,44.5c-2.7-1.7-3.4-5.3-1.8-7.9c1.7-2.7,5.3-3.4,7.9-1.8L57.4,57
		c2.7,1.7,3.4,5.3,1.8,7.9C58,66.6,56.2,67.6,54.3,67.6z"/>
</g>
<g>
	<path class="st0" d="M48.5,91.3c-1,0.4-2.1,0.5-3.2,0.3L4.8,84.6C1.6,84-0.4,81,0.1,77.9c0.5-3.1,3.5-5.2,6.6-4.7l40.6,7.1
		c3.1,0.5,5.2,3.5,4.7,6.6C51.5,88.9,50.2,90.6,48.5,91.3z"/>
</g>
</svg>
