<?xml version="1.0" encoding="utf-8"?>
<!-- Generator: Adobe Illustrator 24.2.0, SVG Export Plug-In . SVG Version: 6.00 Build 0)  -->
<svg version="1.1" id="Layer_1" xmlns="http://www.w3.org/2000/svg" xmlns:xlink="http://www.w3.org/1999/xlink" x="0px" y="0px"
	 viewBox="0 0 480 509.2" style="enable-background:new 0 0 480 509.2;" xml:space="preserve">
<style type="text/css">
	.st0{fill:#001F3F;}
	.st1{fill:#FF7E4B;}
</style>
<g>
	<path class="st0" d="M442.1,81.9L253.8,2c-4.3-2-9.1-3-13.8-3c-4.8,0-9.5,1-13.7,3L37.9,81.9C14.2,91.9-1.1,114.7-1,140
		c0.1,29.6,4.6,107.2,42.5,188.3c37.4,80,95.1,139.2,171.7,175.8c8.3,4,17.6,6.1,26.8,6.1c9.3,0,18.3-2.1,26.8-6.1
		c76.6-36.7,134.3-95.8,171.7-175.8c37.9-81.1,42.3-158.7,42.5-188.3C481.1,114.7,465.8,91.9,442.1,81.9z M234.8,22.2l0.7-0.2
		c1.4-0.7,3-1,4.5-1c1.6,0,3.1,0.3,4.8,1l0.5,0.2l188.3,79.9c15.6,6.6,25.6,21.4,25.5,37.8c-0.1,18.4-1.7,47.8-9,82.9
		c-7,34-17.6,66.4-31.4,96.2c-16.2,34.7-36.9,65.7-61.6,92.3c-28.1,30.2-61.6,54.8-99.7,73c-5.4,2.6-11.4,3.9-17.4,3.9
		c-5.9,0-11.9-1.4-17.4-3.9c-38.1-18.2-71.6-42.8-99.7-73c-24.6-26.4-45.3-57.5-61.6-92.3c-13.9-30-24.4-62.4-31.2-96.2
		c-7.2-35.6-8.9-64.7-9-82.9c-0.1-16.4,9.9-31.2,25.5-37.8L234.8,22.2z"/>
	<g>
		<path class="st1" d="M319.7,209h-4.4v-20.4c-0.1-41.5-33.9-75.2-75.3-75.2c-41.5,0-75.2,33.7-75.2,75.2V209h-4.4
			c-19.5,0-35.4,15.9-35.4,35.4V340c0,19.5,15.9,35.4,35.4,35.4h159.3c19.5,0,35.4-15.9,35.4-35.4v-95.6
			C355,224.9,339.2,209,319.7,209z M203.6,188.7c0-20,16.3-36.3,36.3-36.3c20,0,36.3,16.3,36.3,36.3v20.4h-72.6V188.7z M240,130.5
			c32.1,0,58.2,26.1,58.2,58.2v20.4h-5v-20.4c0-29.4-23.9-53.3-53.3-53.3c-29.4,0-53.3,23.9-53.3,53.3v20.4h-4.8v-20.4
			C181.8,156.6,207.9,130.5,240,130.5z M141.9,244.4c0-10.1,8.2-18.4,18.4-18.4h159.4c10.1,0,18.4,8.2,18.4,18.4V340
			c0,10.1-8.2,18.4-18.4,18.4H158.8h-0.3c-9.3-0.9-16.6-8.9-16.6-18.3V244.4z"/>
		<path class="st1" d="M235,301.4v21.8h10v-21.8c10.3-2.3,18.1-11.5,18.1-22.6c0-12.8-10.3-23.1-23.1-23.1s-23.1,10.3-23.1,23.1
			C216.9,289.9,224.6,299.2,235,301.4z"/>
	</g>
</g>
</svg>
