<?xml version="1.0" encoding="utf-8"?>
<!-- Generator: Adobe Illustrator 24.2.0, SVG Export Plug-In . SVG Version: 6.00 Build 0)  -->
<svg version="1.1" id="Layer_1" xmlns="http://www.w3.org/2000/svg" xmlns:xlink="http://www.w3.org/1999/xlink" x="0px" y="0px"
	 viewBox="0 0 276 366" style="enable-background:new 0 0 276 366;" xml:space="preserve">
<style type="text/css">
	.st0{fill:#FF7E4B;}
</style>
<g>
	<path class="st0" d="M67.1,365.7H0V0h140.9c27.8,0,51.9,5,72.2,15c20.3,10,35.9,23.9,46.5,41.7c10.7,17.8,16,38.2,16,61.3
		c0,35.3-11.9,63.1-35.6,83.4c-23.7,20.3-56.8,30.5-99.2,30.5H67.1V365.7z M67.1,178h73.8c22.7,0,39.5-5.3,50.4-16
		c10.8-10.7,16.3-25.2,16.3-43.5c0-18.6-5.5-34.1-16.5-46.3c-11-12.2-27.7-18.3-50.1-18.3H67.1V178z"/>
</g>
<text transform="matrix(1 0 0 1 517.0078 362.1113)" class="st0" style="font-family:'Freesentation-7Bold'; font-size:508.6658px;">P</text>
</svg>
