<?xml version="1.0" encoding="utf-8"?>
<!-- Generator: Adobe Illustrator 24.2.0, SVG Export Plug-In . SVG Version: 6.00 Build 0)  -->
<svg version="1.1" id="Layer_1" xmlns="http://www.w3.org/2000/svg" xmlns:xlink="http://www.w3.org/1999/xlink" x="0px" y="0px"
	 viewBox="0 0 344.8 282.5" style="enable-background:new 0 0 344.8 282.5;" xml:space="preserve">
<style type="text/css">
	.st0{fill:#FF7E4B;}
	.st1{fill:#001F3F;}
</style>
<g>
	<path class="st0" d="M142.8,165.4c-15.4-0.3-29.4-14.5-29.4-32.4V70.3c0-1,0.2-1.9,0.5-2.7c3.4-22,22.6-38.3,45.5-38.3H219
		c0.1,0,0.2,0,0.2,0c0.8,0,1.6-0.3,2.2-0.9l18-17.7c14.6-14.3,38.4-14.3,53,0l41.6,40.8c0,0,0,0,0,0c14.6,14.3,14.6,37.7,0,52
		l-37.1,36.5c-2.2,2.1-5.5,2.8-8.3,1.6c-2.9-1.2-4.7-3.9-4.7-6.9v-5.9c0-18.9-15.7-34.4-35-34.4l-66.3,0.4c-3.9,0-7,3.2-7,7.1v31.5
		C175.7,149.7,161.6,167.1,142.8,165.4z M128.7,71.7c0,0.2-0.1,0.4-0.1,0.6v60.7c0,8.6,6.6,17.4,14.1,17.4c9.3,0,17.5-7.5,17.4-17
		v-46c0-4.1,3.4-7.5,7.6-7.5l81-0.4c22.1,0,40.9,14.1,47.6,33.6c0.7,2.1,3.4,2.8,5,1.2L323.1,93c8.7-8.5,8.7-22.3,0-30.8l-41.6-40.8
		c-4.2-4.1-9.8-6.4-15.7-6.4c-5.9,0-11.5,2.3-15.7,6.4l-21.4,21c-1.6,1.6-3.9,2.4-6.2,2.2c-1.3-0.1-2.5-0.2-3.6-0.2h-59.6
		c-15.7,0-28.8,11.5-30.5,26.8C128.8,71.3,128.8,71.5,128.7,71.7z"/>
	<path class="st1" d="M79.8,282.5c-10.1,0-19.6-4.1-26.8-11.4l-42-43.3c-14.8-15.2-14.8-40,0-55.2l38-39.2l8.3-30
		c6.2-22.4,24.6-39.5,47-43.5c2.2-0.4,4.5,0.2,6.3,1.8c1.7,1.5,2.7,3.7,2.7,6.1v65.8c0,17.6,13.9,32,31,32s31-14.4,31-32v-31
		c0-4.4,3.5-8,7.7-8h64.6c20.8,0,37.8,17.5,37.8,38.9v0.2c-0.1,14.7-8.1,27.9-20.2,34.5c2,4.4,3,9.3,3,14.3
		c0,16.4-11.1,30.1-25.9,33.7c0,0.6,0,1.2,0,1.8c0,19.1-15,34.6-33.5,34.6h-84.4l-18,18.5C99.4,278.4,89.9,282.5,79.8,282.5z
		 M97.9,78.2c-12.4,5.2-22,16.1-25.8,29.5l-8.9,32c-0.4,1.3-1,2.5-2,3.4L22,183.7c-8.7,9-8.7,23.7,0,32.7l42,43.3
		c4.2,4.4,9.9,6.8,15.9,6.8s11.6-2.4,15.9-6.8l20.3-20.9c1.4-1.5,3.4-2.3,5.5-2.3c0.4,0,0.8,0,1.2,0c0.1,0,0.2,0,0.3,0H209
		c10,0,18.1-8.4,18.1-18.7c0-2.1-0.4-4.2-1-6.3c-0.8-2.4-0.4-5.1,1-7.2c1.4-2.1,3.8-3.3,6.3-3.3h1.5c10,0,18.1-8.4,18.1-18.7
		c0-4.8-1.8-9.4-5-12.8c-1.9-2.1-2.6-5.1-1.8-7.9c0.9-2.8,3.1-4.8,5.9-5.4c10.4-2.1,18-11.6,18.1-22.6v-0.2c0-12.7-10.1-23-22.4-23
		h-56.8v23.1c0,26.4-20.8,47.9-46.4,47.9s-46.4-21.5-46.4-47.9V78.2z"/>
</g>
</svg>
